HIERARCHY
ROOT SpineBase
{
  OFFSET 0.000000 0.000000 0.000000
  CHANNELS 6 Xposition Yposition Zposition Zrotation Xrotation Yrotation
  JOINT SpineMid
  {
    OFFSET -0.000000 27.498826 0.000000
    CHANNELS 3 Zrotation Xrotation Yrotation
    JOINT SpineShoulder
    {
      OFFSET -0.535855 20.425332 -0.593508
      CHANNELS 3 Zrotation Xrotation Yrotation
      JOINT Neck
      {
        OFFSET -0.197076 6.750546 -0.392378
        CHANNELS 3 Zrotation Xrotation Yrotation
        JOINT Head
        {
          OFFSET -1.958169 11.622871 4.490928
          CHANNELS 3 Zrotation Xrotation Yrotation
          End Site
          {
            OFFSET 0 0 0
          }
        }
      }
      JOINT ShoulderLeft
      {
        OFFSET -8.428166 -0.198601 0.916211
        CHANNELS 3 Zrotation Xrotation Yrotation
        JOINT ElbowLeft
        {
          OFFSET -3.121566 -24.570356 5.921117
          CHANNELS 3 Zrotation Xrotation Yrotation
          JOINT WristLeft
          {
            OFFSET 18.590425 -3.929341 -17.774181
            CHANNELS 3 Zrotation Xrotation Yrotation
            JOINT HandLeft
            {
              OFFSET 13.864490 -8.726552 -15.143839
              CHANNELS 3 Zrotation Xrotation Yrotation
              JOINT HandTipLeft
              {
                OFFSET 1.556621 -2.695844 -2.946796
                CHANNELS 3 Zrotation Xrotation Yrotation
                End Site
                {
                  OFFSET 0 0 0
                }
              }
              JOINT ThumbLeft
              {
                OFFSET 0.720345 -1.349071 -2.800348
                CHANNELS 3 Zrotation Xrotation Yrotation
                End Site
                {
                  OFFSET 0 0 0
                }
              }
            }
          }
        }
      }
      JOINT ShoulderRight
      {
        OFFSET 7.896732 -5.754362 -10.128969
        CHANNELS 3 Zrotation Xrotation Yrotation
        JOINT ElbowRight
        {
          OFFSET 3.131888 -25.177682 -7.576837
          CHANNELS 3 Zrotation Xrotation Yrotation
          JOINT WristRight
          {
            OFFSET 0.067108 -18.161488 -6.293498
            CHANNELS 3 Zrotation Xrotation Yrotation
            JOINT HandRight
            {
              OFFSET -2.323058 -6.308460 0.312961
              CHANNELS 3 Zrotation Xrotation Yrotation
              JOINT HandTipRight
              {
                OFFSET -0.799818 -4.659867 0.212831
                CHANNELS 3 Zrotation Xrotation Yrotation
                End Site
                {
                  OFFSET 0 0 0
                }
              }
              JOINT ThumbRight
              {
                OFFSET -2.681805 -0.322504 -2.188351
                CHANNELS 3 Zrotation Xrotation Yrotation
                End Site
                {
                  OFFSET 0 0 0
                }
              }
            }
          }
        }
      }
    }
  }
  JOINT HipLeft
  {
    OFFSET -4.700377 0.369683 0.822593
    CHANNELS 3 Zrotation Xrotation Yrotation
    JOINT KneeLeft
    {
      OFFSET 5.595111 -26.877537 -4.730923
      CHANNELS 3 Zrotation Xrotation Yrotation
      JOINT AnkleLeft
      {
        OFFSET 3.759230 -29.591087 4.171038
        CHANNELS 3 Zrotation Xrotation Yrotation
        JOINT FootLeft
        {
          OFFSET -3.182537 -0.017203 -9.194504
          CHANNELS 3 Zrotation Xrotation Yrotation
          End Site
          {
            OFFSET 0 0 0
          }
        }
      }
    }
  }
  JOINT HipRight
  {
    OFFSET 4.735613 0.382527 -6.646562
    CHANNELS 3 Zrotation Xrotation Yrotation
    JOINT KneeRight
    {
      OFFSET 7.304273 -23.532575 2.288469
      CHANNELS 3 Zrotation Xrotation Yrotation
      JOINT AnkleRight
      {
        OFFSET -3.753932 -29.428552 4.136252
        CHANNELS 3 Zrotation Xrotation Yrotation
        JOINT FootRight
        {
          OFFSET -4.951721 -5.732955 -2.848752
          CHANNELS 3 Zrotation Xrotation Yrotation
          End Site
          {
            OFFSET 0 0 0
          }
        }
      }
    }
  }
}
MOTION
Frames: 10
Frame Time: 0.033333
0.551633 62.063366 347.134322 0.000000 0.000000 38.363738 -0.000000 0.000000 -38.363738 -0.000000 0.000000 0.000000 -0.000000 0.000000 0.000000 0.000000 0.000000 0.000000 -0.000000 0.000000 0.000000 -0.000000 0.000000 0.000000 -0.000000 0.000000 0.000000 -0.000000 0.000000 0.000000 0.000000 0.000000 0.000000 0.000000 0.000000 0.000000 -0.000000 0.000000 0.000000 -0.000000 0.000000 0.000000 -0.000000 0.000000 0.000000 -0.000000 0.000000 0.000000 0.000000 0.000000 0.000000 0.000000 0.000000 0.000000 -0.000000 0.000000 -38.363738 -0.000000 0.000000 0.000000 -0.000000 0.000000 0.000000 0.000000 0.000000 0.000000 -0.000000 0.000000 -38.363738 -0.000000 0.000000 0.000000 -0.000000 0.000000 0.000000 0.000000 0.000000 0.000000
0.985334 61.871294 347.752471 0.869254 -0.429674 39.207315 -0.402003 0.882391 -39.200959 -0.000000 0.000000 0.000000 -0.985679 -0.325020 0.324133 0.000000 0.000000 0.000000 0.063515 -1.500858 0.206191 2.096792 3.757566 0.568514 -1.463237 -2.250666 -2.125551 -5.666387 8.975413 11.419605 0.000000 0.000000 0.000000 0.000000 0.000000 0.000000 -2.529885 -0.427312 0.701570 -1.963426 -0.759036 0.821830 12.318397 -9.481993 3.302943 -7.316195 10.919545 -3.627066 0.000000 0.000000 0.000000 0.000000 0.000000 0.000000 0.193929 2.872333 -38.681694 0.778678 -1.925741 -0.525704 2.211636 -6.164274 1.294931 0.000000 0.000000 0.000000 0.064283 2.045240 -38.877400 -0.663538 -1.288566 -0.486193 1.222877 11.642298 -9.509315 0.000000 0.000000 0.000000
1.354556 61.723691 348.245197 1.573984 -0.706153 40.119538 -0.748923 1.554092 -40.099680 -0.000000 0.000000 0.000000 -1.821880 -0.632578 0.590212 0.000000 0.000000 0.000000 0.105683 -2.683772 0.366939 3.374251 6.307749 0.769685 -2.455785 -3.673064 -3.385572 -10.140879 14.103920 19.063135 0.000000 0.000000 0.000000 0.000000 0.000000 0.000000 -4.557853 -1.031007 1.212296 -3.630231 -1.241560 1.531274 24.971459 -19.426269 8.669389 -14.536256 22.930016 -6.088681 0.000000 0.000000 0.000000 0.000000 0.000000 0.000000 0.362801 5.120630 -39.194880 1.393316 -3.465916 -0.927396 4.110574 -11.042447 2.588268 0.000000 0.000000 0.000000 0.077028 3.569200 -39.556035 -1.224032 -2.222252 -0.880287 3.302762 19.596838 -16.354824 0.000000 0.000000 0.000000
1.659300 61.620557 348.612501 2.118855 -0.832730 41.098979 -1.050052 2.020029 -41.065067 -0.000000 0.000000 0.000000 -2.507453 -0.919964 0.799287 0.000000 0.000000 0.000000 0.123472 -3.544757 0.480546 3.876645 7.685819 0.750002 -2.905280 -4.310855 -3.928627 -12.146407 16.260346 22.437651 0.000000 0.000000 0.000000 0.000000 0.000000 0.000000 -5.971518 -1.790636 1.499195 -5.069139 -1.428430 2.191023 37.016685 -27.866182 15.411964 -20.994875 34.022233 -7.082129 0.000000 0.000000 0.000000 0.000000 0.000000 0.000000 0.488824 6.739455 -39.893457 1.691981 -5.439481 -1.354185 5.845064 -13.945999 3.847550 0.000000 0.000000 0.000000 0.022943 4.583814 -40.390462 -1.674716 -2.811530 -1.163971 5.278658 24.709388 -21.090424 0.000000 0.000000 0.000000
1.899566 61.561891 348.854382 2.507647 -0.811839 42.142966 -1.315729 2.284016 -42.098968 -0.000000 0.000000 0.000000 -3.041685 -1.185039 0.952468 0.000000 0.000000 0.000000 0.114700 -4.081743 0.545894 3.612781 7.913200 0.582088 -2.793684 -4.196269 -3.808163 -11.324677 16.118721 21.554243 0.000000 0.000000 0.000000 0.000000 0.000000 0.000000 -6.688570 -2.682146 1.546701 -6.360392 -1.323073 2.852766 47.180661 -33.871250 22.171931 -26.210048 42.823092 -6.940564 0.000000 0.000000 0.000000 0.000000 0.000000 0.000000 0.546832 7.726830 -40.766323 1.802529 -6.064509 -1.568742 7.317059 -16.830304 4.951696 0.000000 0.000000 0.000000 -0.118401 5.100611 -41.372250 -2.010957 -3.064495 -1.324018 6.762920 27.887455 -24.203894 0.000000 0.000000 0.000000
2.075352 61.547694 348.970841 2.743186 -0.644947 43.247447 -1.557507 2.348667 -43.200076 -0.000000 0.000000 0.000000 -3.424136 -1.426205 1.050828 0.000000 0.000000 0.000000 0.078073 -4.293747 0.562463 2.564703 6.985381 0.269301 -2.135626 -3.340308 -3.015403 -7.714469 13.529314 16.394497 0.000000 0.000000 0.000000 0.000000 0.000000 0.000000 -6.662094 -3.681544 1.357551 -7.571247 -0.943279 3.546744 54.478530 -37.683863 27.755583 -31.086677 49.749040 -5.541304 0.000000 0.000000 0.000000 0.000000 0.000000 0.000000 0.504248 8.082377 -41.802214 2.288411 -5.645145 -1.472695 7.964989 -19.553071 5.859199 0.000000 0.000000 0.000000 -0.372391 5.130306 -42.494194 -2.230590 -2.985973 -1.352091 7.633056 29.725702 -26.034878 0.000000 0.000000 0.000000
2.064757 61.687295 348.755181 2.518257 -0.094369 44.248077 -1.738675 1.824431 -44.218316 -0.000000 0.000000 0.000000 -3.637349 -1.757210 1.066016 0.000000 0.000000 0.000000 -0.126438 -4.443618 0.524471 0.167571 4.442259 -0.535876 -0.866835 -1.534856 -0.980534 -0.185202 8.896928 5.960854 0.000000 0.000000 0.000000 0.000000 0.000000 0.000000 -5.950874 -4.787921 0.965876 -8.510575 1.200400 4.375437 55.935672 -39.986119 30.435020 -27.399080 53.469324 -8.677611 0.000000 0.000000 0.000000 0.000000 0.000000 0.000000 -1.515914 8.854293 -42.319661 6.181013 -5.104921 -1.300808 8.880450 -23.432415 10.279880 0.000000 0.000000 0.000000 -0.575384 4.088117 -43.593171 -2.181704 -2.838882 -1.153160 7.053270 30.038446 -25.958564 0.000000 0.000000 0.000000
1.869783 61.740437 348.565543 2.057417 0.519768 45.819282 -1.057179 1.561620 -45.800424 -0.201078 -0.849767 -0.029623 -3.740047 -2.225680 1.011047 0.000000 0.000000 0.000000 -0.284099 -4.087618 0.437035 -3.010317 0.914347 -0.538809 0.922043 0.992545 0.887938 4.894348 -0.656726 -5.186517 0.000000 0.000000 0.000000 0.000000 0.000000 0.000000 -4.322346 -5.718671 0.380941 -9.089961 1.932866 4.797472 65.553741 -38.078794 35.516216 -41.934054 54.554329 -1.202454 0.000000 0.000000 0.000000 0.000000 0.000000 0.000000 -1.305920 6.236286 -44.439071 3.671776 -2.783966 -1.050556 8.359190 -21.006886 9.446088 0.000000 0.000000 0.000000 -0.589965 2.204255 -45.332581 -2.433017 -2.048004 -0.863657 5.387715 28.530749 -23.994805 0.000000 0.000000 0.000000
1.922827 61.795453 348.405886 2.106802 0.948260 47.018612 -1.130830 1.399767 -47.002154 -0.391586 -0.255189 -0.021822 -3.922653 -2.943542 1.051853 0.000000 0.000000 0.000000 -3.561318 -6.507397 -0.398835 -0.845536 1.235031 -1.136311 0.197347 2.008082 5.232963 9.689238 -11.546092 -19.413277 0.000000 0.000000 0.000000 0.000000 0.000000 0.000000 -1.002386 -7.993596 -0.684360 -10.501925 2.425782 5.544384 64.106918 -37.872129 36.330724 -47.074061 54.802337 3.086410 0.000000 0.000000 0.000000 0.000000 0.000000 0.000000 -1.234925 4.392841 -46.085758 0.621406 -1.099095 -0.907327 10.060248 -22.634307 7.124444 0.000000 0.000000 0.000000 -1.435142 1.284004 -46.774124 -2.646050 -0.883304 -0.623480 4.829539 28.029891 -23.266651 0.000000 0.000000 0.000000
2.102014 61.869881 348.250001 2.191715 1.386647 47.196316 -1.221778 1.254175 -47.181764 -0.517636 -0.226092 -0.026112 -3.387752 -3.471411 0.784816 0.000000 0.000000 0.000000 -2.752946 -5.063519 -0.355135 -4.588566 -3.466629 -3.597585 0.456697 3.289293 9.946020 9.578357 -22.228038 -31.675181 0.000000 0.000000 0.000000 0.000000 0.000000 0.000000 2.873249 -9.568082 -1.693035 -12.563992 1.839584 6.423804 60.549801 -39.632575 37.761039 -60.676011 66.719390 15.524752 0.000000 0.000000 0.000000 0.000000 0.000000 0.000000 -1.048780 1.869521 -46.867607 -4.162773 0.602031 -0.682404 11.920631 -25.330726 -1.476279 0.000000 0.000000 0.000000 -2.506371 0.666224 -47.208268 -2.701363 0.528081 -0.433639 4.683099 27.299820 -22.770868 0.000000 0.000000 0.000000
